<mxfile host="65bd71144e">
    <diagram id="c9acdgo0N3tNevGowkev" name="Page-1">
        <mxGraphModel dx="3319" dy="1799" grid="1" gridSize="10" guides="1" tooltips="1" connect="1" arrows="1" fold="1" page="1" pageScale="1" pageWidth="850" pageHeight="1100" math="0" shadow="0">
            <root>
                <mxCell id="0"/>
                <mxCell id="1" parent="0"/>
                <mxCell id="4" style="edgeStyle=orthogonalEdgeStyle;html=1;exitX=0;exitY=1;exitDx=0;exitDy=0;entryX=0.75;entryY=0;entryDx=0;entryDy=0;" edge="1" parent="1" source="2" target="3">
                    <mxGeometry relative="1" as="geometry"/>
                </mxCell>
                <mxCell id="7" style="edgeStyle=none;html=1;exitX=0.5;exitY=1;exitDx=0;exitDy=0;" edge="1" parent="1" source="2" target="5">
                    <mxGeometry relative="1" as="geometry"/>
                </mxCell>
                <mxCell id="9" style="edgeStyle=orthogonalEdgeStyle;html=1;entryX=0.25;entryY=0;entryDx=0;entryDy=0;exitX=1;exitY=1;exitDx=0;exitDy=0;" edge="1" parent="1" source="2" target="6">
                    <mxGeometry relative="1" as="geometry">
                        <mxPoint x="-400" y="-60" as="sourcePoint"/>
                    </mxGeometry>
                </mxCell>
                <mxCell id="2" value="Select&lt;br&gt;login site" style="whiteSpace=wrap;html=1;" vertex="1" parent="1">
                    <mxGeometry x="-610" y="-116" width="120" height="60" as="geometry"/>
                </mxCell>
                <mxCell id="76" style="edgeStyle=orthogonalEdgeStyle;html=1;exitX=0.25;exitY=1;exitDx=0;exitDy=0;entryX=0.25;entryY=0;entryDx=0;entryDy=0;fontColor=#FFFFFF;" edge="1" parent="1" source="3" target="68">
                    <mxGeometry relative="1" as="geometry"/>
                </mxCell>
                <mxCell id="3" value="yt" style="whiteSpace=wrap;html=1;" vertex="1" parent="1">
                    <mxGeometry x="-790" y="-10" width="120" height="60" as="geometry"/>
                </mxCell>
                <mxCell id="75" style="edgeStyle=orthogonalEdgeStyle;html=1;exitX=0.5;exitY=1;exitDx=0;exitDy=0;entryX=0.5;entryY=0;entryDx=0;entryDy=0;fontColor=#FFFFFF;" edge="1" parent="1" source="5" target="68">
                    <mxGeometry relative="1" as="geometry"/>
                </mxCell>
                <mxCell id="5" value="sp" style="whiteSpace=wrap;html=1;" vertex="1" parent="1">
                    <mxGeometry x="-610" y="-10" width="120" height="60" as="geometry"/>
                </mxCell>
                <mxCell id="6" value="mongodb" style="whiteSpace=wrap;html=1;" vertex="1" parent="1">
                    <mxGeometry x="-430" y="-10" width="120" height="60" as="geometry"/>
                </mxCell>
                <mxCell id="20" value="No" style="edgeStyle=orthogonalEdgeStyle;html=1;entryX=0.5;entryY=0;entryDx=0;entryDy=0;" edge="1" parent="1" source="17" target="23">
                    <mxGeometry relative="1" as="geometry">
                        <mxPoint x="-510" y="-473" as="targetPoint"/>
                    </mxGeometry>
                </mxCell>
                <mxCell id="22" value="Yes" style="edgeStyle=orthogonalEdgeStyle;html=1;entryX=0.5;entryY=0;entryDx=0;entryDy=0;" edge="1" parent="1" source="17" target="24">
                    <mxGeometry relative="1" as="geometry">
                        <mxPoint x="-950" y="-473" as="targetPoint"/>
                    </mxGeometry>
                </mxCell>
                <mxCell id="17" value="IF&lt;br&gt;login data&lt;br&gt;checked" style="rhombus;whiteSpace=wrap;html=1;" vertex="1" parent="1">
                    <mxGeometry x="-860" y="-513" width="140" height="80" as="geometry"/>
                </mxCell>
                <mxCell id="30" style="edgeStyle=none;html=1;exitX=0.5;exitY=1;exitDx=0;exitDy=0;entryX=0.5;entryY=0;entryDx=0;entryDy=0;" edge="1" parent="1" source="23" target="29">
                    <mxGeometry relative="1" as="geometry"/>
                </mxCell>
                <mxCell id="23" value="&lt;font color=&quot;#000000&quot;&gt;show&lt;br&gt;N\A&lt;/font&gt;" style="shape=parallelogram;perimeter=parallelogramPerimeter;whiteSpace=wrap;html=1;fixedSize=1;fillColor=#d0cee2;strokeColor=#56517e;" vertex="1" parent="1">
                    <mxGeometry x="-460" y="-420" width="120" height="60" as="geometry"/>
                </mxCell>
                <mxCell id="25" style="edgeStyle=none;html=1;exitX=0.5;exitY=1;exitDx=0;exitDy=0;entryX=0.5;entryY=0;entryDx=0;entryDy=0;" edge="1" parent="1" source="24" target="27">
                    <mxGeometry relative="1" as="geometry">
                        <mxPoint x="-1090" y="-323" as="targetPoint"/>
                    </mxGeometry>
                </mxCell>
                <mxCell id="24" value="show&lt;br&gt;username" style="shape=parallelogram;perimeter=parallelogramPerimeter;whiteSpace=wrap;html=1;fixedSize=1;fillColor=#008a00;fontColor=#ffffff;strokeColor=#005700;" vertex="1" parent="1">
                    <mxGeometry x="-1140" y="-420" width="120" height="60" as="geometry"/>
                </mxCell>
                <mxCell id="27" value="logout" style="rhombus;whiteSpace=wrap;html=1;" vertex="1" parent="1">
                    <mxGeometry x="-1150" y="-236" width="140" height="80" as="geometry"/>
                </mxCell>
                <mxCell id="29" value="log in" style="rhombus;whiteSpace=wrap;html=1;" vertex="1" parent="1">
                    <mxGeometry x="-470" y="-236" width="140" height="80" as="geometry"/>
                </mxCell>
                <mxCell id="32" value="Yes" style="edgeStyle=orthogonalEdgeStyle;html=1;exitX=0;exitY=0.5;exitDx=0;exitDy=0;entryX=0.5;entryY=0;entryDx=0;entryDy=0;" edge="1" parent="1" source="29" target="2">
                    <mxGeometry x="-0.5" relative="1" as="geometry">
                        <mxPoint x="-490" y="-250.48000000000002" as="sourcePoint"/>
                        <mxPoint x="-550" y="-130" as="targetPoint"/>
                        <mxPoint as="offset"/>
                    </mxGeometry>
                </mxCell>
                <mxCell id="34" value="No" style="edgeStyle=orthogonalEdgeStyle;html=1;exitX=1;exitY=0.5;exitDx=0;exitDy=0;entryX=0.75;entryY=0;entryDx=0;entryDy=0;" edge="1" parent="1" source="29" target="36">
                    <mxGeometry relative="1" as="geometry">
                        <mxPoint x="-319.99999999999955" y="-196.48000000000002" as="sourcePoint"/>
                        <mxPoint x="-200" y="-196" as="targetPoint"/>
                    </mxGeometry>
                </mxCell>
                <mxCell id="36" value="exit&lt;br&gt;login" style="rounded=1;whiteSpace=wrap;html=1;" vertex="1" parent="1">
                    <mxGeometry x="-190" y="340" width="120" height="60" as="geometry"/>
                </mxCell>
                <mxCell id="60" style="edgeStyle=orthogonalEdgeStyle;html=1;exitX=0.5;exitY=1;exitDx=0;exitDy=0;entryX=0.5;entryY=0;entryDx=0;entryDy=0;fontColor=#FFFFFF;" edge="1" parent="1" source="37" target="54">
                    <mxGeometry relative="1" as="geometry"/>
                </mxCell>
                <mxCell id="37" value="user open app" style="rounded=1;whiteSpace=wrap;html=1;" vertex="1" parent="1">
                    <mxGeometry x="640" y="-760" width="120" height="60" as="geometry"/>
                </mxCell>
                <mxCell id="50" style="edgeStyle=orthogonalEdgeStyle;html=1;exitX=0.5;exitY=1;exitDx=0;exitDy=0;entryX=0.5;entryY=0;entryDx=0;entryDy=0;fontColor=#FFFFFF;" edge="1" parent="1" source="38" target="49">
                    <mxGeometry relative="1" as="geometry"/>
                </mxCell>
                <mxCell id="38" value="&lt;font color=&quot;#ffffff&quot;&gt;Login In&lt;/font&gt;" style="ellipse;whiteSpace=wrap;html=1;aspect=fixed;fontColor=#000000;" vertex="1" parent="1">
                    <mxGeometry x="-830" y="-760" width="80" height="80" as="geometry"/>
                </mxCell>
                <mxCell id="105" style="edgeStyle=orthogonalEdgeStyle;html=1;exitX=0.5;exitY=1;exitDx=0;exitDy=0;entryX=0.5;entryY=0;entryDx=0;entryDy=0;fontColor=#FFFFFF;" edge="1" parent="1" source="46" target="58">
                    <mxGeometry relative="1" as="geometry"/>
                </mxCell>
                <mxCell id="46" value="&lt;font color=&quot;#ffffff&quot;&gt;Login&lt;/font&gt;" style="ellipse;whiteSpace=wrap;html=1;aspect=fixed;fontColor=#000000;" vertex="1" parent="1">
                    <mxGeometry x="500" y="-550" width="80" height="80" as="geometry"/>
                </mxCell>
                <mxCell id="51" style="edgeStyle=orthogonalEdgeStyle;html=1;exitX=0.5;exitY=1;exitDx=0;exitDy=0;entryX=0.5;entryY=0;entryDx=0;entryDy=0;fontColor=#FFFFFF;" edge="1" parent="1" source="49" target="17">
                    <mxGeometry relative="1" as="geometry"/>
                </mxCell>
                <mxCell id="49" value="auto login&lt;br&gt;check" style="shape=process;whiteSpace=wrap;html=1;backgroundOutline=1;fontColor=#FFFFFF;" vertex="1" parent="1">
                    <mxGeometry x="-850" y="-630" width="120" height="60" as="geometry"/>
                </mxCell>
                <mxCell id="52" value="No" style="edgeStyle=orthogonalEdgeStyle;html=1;exitX=1;exitY=0.5;exitDx=0;exitDy=0;entryX=0.75;entryY=0;entryDx=0;entryDy=0;" edge="1" parent="1" source="54" target="59">
                    <mxGeometry x="-0.5709" relative="1" as="geometry">
                        <mxPoint x="1400" y="960" as="targetPoint"/>
                        <Array as="points">
                            <mxPoint x="1410" y="-606"/>
                        </Array>
                        <mxPoint as="offset"/>
                    </mxGeometry>
                </mxCell>
                <mxCell id="53" value="Yes" style="edgeStyle=orthogonalEdgeStyle;html=1;entryX=0.5;entryY=0;entryDx=0;entryDy=0;" edge="1" parent="1" source="54" target="46">
                    <mxGeometry x="-0.2989" relative="1" as="geometry">
                        <mxPoint x="540" y="-560" as="targetPoint"/>
                        <mxPoint as="offset"/>
                    </mxGeometry>
                </mxCell>
                <mxCell id="54" value="Login?" style="rhombus;whiteSpace=wrap;html=1;" vertex="1" parent="1">
                    <mxGeometry x="630" y="-646" width="140" height="80" as="geometry"/>
                </mxCell>
                <mxCell id="56" value="No" style="edgeStyle=orthogonalEdgeStyle;html=1;" edge="1" source="58" parent="1" target="88">
                    <mxGeometry x="-0.8599" y="10" relative="1" as="geometry">
                        <mxPoint x="900" y="110" as="targetPoint"/>
                        <mxPoint as="offset"/>
                    </mxGeometry>
                </mxCell>
                <mxCell id="58" value="update&amp;nbsp;&lt;br&gt;playlist list?" style="rhombus;whiteSpace=wrap;html=1;" vertex="1" parent="1">
                    <mxGeometry x="470" y="-430" width="140" height="80" as="geometry"/>
                </mxCell>
                <mxCell id="59" value="exit" style="rounded=1;whiteSpace=wrap;html=1;" vertex="1" parent="1">
                    <mxGeometry x="1320" y="980" width="120" height="60" as="geometry"/>
                </mxCell>
                <mxCell id="94" style="edgeStyle=orthogonalEdgeStyle;html=1;exitX=0.5;exitY=1;exitDx=0;exitDy=0;fontColor=#FFFFFF;entryX=0.5;entryY=0;entryDx=0;entryDy=0;" edge="1" parent="1" source="61" target="95">
                    <mxGeometry relative="1" as="geometry">
                        <mxPoint x="330" y="-90" as="targetPoint"/>
                    </mxGeometry>
                </mxCell>
                <mxCell id="61" value="create playlist&lt;br&gt;jsons" style="shape=process;whiteSpace=wrap;html=1;backgroundOutline=1;fontColor=#FFFFFF;" vertex="1" parent="1">
                    <mxGeometry x="300" y="-290" width="120" height="60" as="geometry"/>
                </mxCell>
                <mxCell id="114" style="edgeStyle=orthogonalEdgeStyle;html=1;exitX=0.5;exitY=1;exitDx=0;exitDy=0;entryX=0.5;entryY=0;entryDx=0;entryDy=0;fontColor=#FFFFFF;" edge="1" parent="1" source="68" target="36">
                    <mxGeometry relative="1" as="geometry"/>
                </mxCell>
                <mxCell id="68" value="login&lt;br&gt;oath2" style="shape=process;whiteSpace=wrap;html=1;backgroundOutline=1;fontColor=#FFFFFF;" vertex="1" parent="1">
                    <mxGeometry x="-610" y="120" width="120" height="60" as="geometry"/>
                </mxCell>
                <mxCell id="69" value="&lt;font color=&quot;#ffffff&quot;&gt;Login&lt;/font&gt;" style="ellipse;whiteSpace=wrap;html=1;aspect=fixed;fontColor=#000000;" vertex="1" parent="1">
                    <mxGeometry x="-1260" y="-126" width="80" height="80" as="geometry"/>
                </mxCell>
                <mxCell id="70" value="Yes" style="edgeStyle=orthogonalEdgeStyle;html=1;entryX=0.5;entryY=0;entryDx=0;entryDy=0;exitX=0;exitY=0.5;exitDx=0;exitDy=0;" edge="1" parent="1" source="27" target="69">
                    <mxGeometry x="-0.7143" y="-24" relative="1" as="geometry">
                        <mxPoint x="-1179.9999999999995" y="-170" as="sourcePoint"/>
                        <mxPoint x="-1310" y="-117" as="targetPoint"/>
                        <mxPoint as="offset"/>
                    </mxGeometry>
                </mxCell>
                <mxCell id="74" style="edgeStyle=orthogonalEdgeStyle;html=1;entryX=0.75;entryY=0;entryDx=0;entryDy=0;exitX=0.75;exitY=1;exitDx=0;exitDy=0;" edge="1" parent="1" source="6" target="68">
                    <mxGeometry relative="1" as="geometry">
                        <mxPoint x="-430" y="130" as="sourcePoint"/>
                        <mxPoint x="-340" y="176" as="targetPoint"/>
                    </mxGeometry>
                </mxCell>
                <mxCell id="78" value="No" style="edgeStyle=orthogonalEdgeStyle;html=1;exitX=1;exitY=0.5;exitDx=0;exitDy=0;entryX=0.25;entryY=0;entryDx=0;entryDy=0;" edge="1" parent="1" source="27" target="36">
                    <mxGeometry x="-0.9423" y="14" relative="1" as="geometry">
                        <mxPoint x="-985" y="-189" as="sourcePoint"/>
                        <mxPoint x="-900" y="310" as="targetPoint"/>
                        <Array as="points">
                            <mxPoint x="-880" y="-196"/>
                            <mxPoint x="-880" y="300"/>
                            <mxPoint x="-160" y="300"/>
                        </Array>
                        <mxPoint as="offset"/>
                    </mxGeometry>
                </mxCell>
                <mxCell id="83" value="Yes" style="edgeStyle=orthogonalEdgeStyle;html=1;entryX=0.5;entryY=0;entryDx=0;entryDy=0;exitX=0;exitY=0.5;exitDx=0;exitDy=0;" edge="1" parent="1" source="58" target="61">
                    <mxGeometry x="-0.7273" y="-10" relative="1" as="geometry">
                        <mxPoint x="330" y="-334.06" as="targetPoint"/>
                        <mxPoint x="420.1029411764707" y="-390.00117647058806" as="sourcePoint"/>
                        <mxPoint as="offset"/>
                    </mxGeometry>
                </mxCell>
                <mxCell id="109" style="edgeStyle=orthogonalEdgeStyle;html=1;exitX=0.75;exitY=1;exitDx=0;exitDy=0;entryX=0.5;entryY=0;entryDx=0;entryDy=0;fontColor=#FFFFFF;" edge="1" parent="1" source="86" target="88">
                    <mxGeometry relative="1" as="geometry"/>
                </mxCell>
                <mxCell id="86" value="&lt;br&gt;&lt;span style=&quot;color: rgb(255, 255, 255); font-family: Helvetica; font-size: 12px; font-style: normal; font-variant-ligatures: normal; font-variant-caps: normal; font-weight: 400; letter-spacing: normal; orphans: 2; text-align: center; text-indent: 0px; text-transform: none; widows: 2; word-spacing: 0px; -webkit-text-stroke-width: 0px; background-color: rgb(42, 37, 47); text-decoration-thickness: initial; text-decoration-style: initial; text-decoration-color: initial; float: none; display: inline !important;&quot;&gt;Upload to mongoDB&lt;/span&gt;&lt;br&gt;" style="shape=internalStorage;whiteSpace=wrap;html=1;backgroundOutline=1;fontColor=#FFFFFF;" vertex="1" parent="1">
                    <mxGeometry x="190" y="-50" width="80" height="80" as="geometry"/>
                </mxCell>
                <mxCell id="100" style="edgeStyle=orthogonalEdgeStyle;html=1;exitX=0.5;exitY=1;exitDx=0;exitDy=0;entryX=0.5;entryY=0;entryDx=0;entryDy=0;fontColor=#FFFFFF;" edge="1" parent="1" source="87" target="99">
                    <mxGeometry relative="1" as="geometry"/>
                </mxCell>
                <mxCell id="87" value="&lt;br&gt;&lt;span style=&quot;color: rgb(255, 255, 255); font-family: Helvetica; font-size: 12px; font-style: normal; font-variant-ligatures: normal; font-variant-caps: normal; font-weight: 400; letter-spacing: normal; orphans: 2; text-align: center; text-indent: 0px; text-transform: none; widows: 2; word-spacing: 0px; -webkit-text-stroke-width: 0px; background-color: rgb(42, 37, 47); text-decoration-thickness: initial; text-decoration-style: initial; text-decoration-color: initial; float: none; display: inline !important;&quot;&gt;Download&amp;nbsp;from mongoDB&lt;/span&gt;&lt;br&gt;" style="shape=internalStorage;whiteSpace=wrap;html=1;backgroundOutline=1;fontColor=#FFFFFF;dx=90;dy=70;" vertex="1" parent="1">
                    <mxGeometry x="430" y="430" width="110" height="80" as="geometry"/>
                </mxCell>
                <mxCell id="88" value="Send to YT music?" style="rhombus;whiteSpace=wrap;html=1;fontColor=#FFFFFF;" vertex="1" parent="1">
                    <mxGeometry x="850" y="170" width="80" height="80" as="geometry"/>
                </mxCell>
                <mxCell id="89" value="Yes" style="edgeStyle=orthogonalEdgeStyle;html=1;exitX=0;exitY=0.5;exitDx=0;exitDy=0;entryX=0.5;entryY=0;entryDx=0;entryDy=0;" edge="1" parent="1" source="88" target="104">
                    <mxGeometry x="-0.7647" y="-30" relative="1" as="geometry">
                        <mxPoint x="760" y="280" as="targetPoint"/>
                        <mxPoint x="1432.56" y="690" as="sourcePoint"/>
                        <mxPoint as="offset"/>
                    </mxGeometry>
                </mxCell>
                <mxCell id="90" value="No" style="edgeStyle=orthogonalEdgeStyle;html=1;exitX=1;exitY=0.5;exitDx=0;exitDy=0;entryX=0.5;entryY=0;entryDx=0;entryDy=0;" edge="1" parent="1" source="88" target="59">
                    <mxGeometry x="-0.4545" y="10" relative="1" as="geometry">
                        <mxPoint x="1080" y="350" as="targetPoint"/>
                        <mxPoint x="1527.3970588235293" y="699.9988235294118" as="sourcePoint"/>
                        <mxPoint as="offset"/>
                    </mxGeometry>
                </mxCell>
                <mxCell id="95" value="Save&lt;br&gt;new list?" style="rhombus;whiteSpace=wrap;html=1;fontColor=#FFFFFF;" vertex="1" parent="1">
                    <mxGeometry x="320" y="-160" width="80" height="80" as="geometry"/>
                </mxCell>
                <mxCell id="98" value="Yes" style="edgeStyle=orthogonalEdgeStyle;html=1;entryX=0.25;entryY=0;entryDx=0;entryDy=0;exitX=0;exitY=0.5;exitDx=0;exitDy=0;" edge="1" parent="1" source="95" target="86">
                    <mxGeometry x="-0.7143" y="-20" relative="1" as="geometry">
                        <mxPoint x="150" y="-60" as="targetPoint"/>
                        <mxPoint x="279.99999999999955" y="-160" as="sourcePoint"/>
                        <mxPoint as="offset"/>
                        <Array as="points">
                            <mxPoint x="210" y="-120"/>
                        </Array>
                    </mxGeometry>
                </mxCell>
                <mxCell id="111" style="edgeStyle=orthogonalEdgeStyle;html=1;exitX=0.5;exitY=1;exitDx=0;exitDy=0;entryX=0.25;entryY=0;entryDx=0;entryDy=0;fontColor=#FFFFFF;" edge="1" parent="1" source="99" target="110">
                    <mxGeometry relative="1" as="geometry"/>
                </mxCell>
                <mxCell id="99" value="Select playlist&lt;br&gt;and place to&lt;br&gt;tmp" style="shape=process;whiteSpace=wrap;html=1;backgroundOutline=1;fontColor=#FFFFFF;" vertex="1" parent="1">
                    <mxGeometry x="425" y="580" width="120" height="60" as="geometry"/>
                </mxCell>
                <mxCell id="104" value="From DB?" style="rhombus;whiteSpace=wrap;html=1;" vertex="1" parent="1">
                    <mxGeometry x="700" y="300" width="140" height="80" as="geometry"/>
                </mxCell>
                <mxCell id="106" value="Yes" style="edgeStyle=orthogonalEdgeStyle;html=1;entryX=0.5;entryY=0;entryDx=0;entryDy=0;exitX=0;exitY=0.5;exitDx=0;exitDy=0;" edge="1" parent="1" source="104" target="87">
                    <mxGeometry x="-0.2989" relative="1" as="geometry">
                        <mxPoint x="539.9999999999995" y="50" as="targetPoint"/>
                        <mxPoint x="649.9999999999995" y="-30" as="sourcePoint"/>
                        <mxPoint as="offset"/>
                    </mxGeometry>
                </mxCell>
                <mxCell id="108" value="No" style="edgeStyle=orthogonalEdgeStyle;html=1;exitX=1;exitY=0.5;exitDx=0;exitDy=0;entryX=0.5;entryY=0;entryDx=0;entryDy=0;" edge="1" parent="1" source="95" target="88">
                    <mxGeometry x="-0.8599" y="10" relative="1" as="geometry">
                        <mxPoint x="895" y="90" as="targetPoint"/>
                        <mxPoint x="540" y="-135" as="sourcePoint"/>
                        <mxPoint as="offset"/>
                    </mxGeometry>
                </mxCell>
                <mxCell id="113" style="edgeStyle=orthogonalEdgeStyle;html=1;exitX=0.5;exitY=1;exitDx=0;exitDy=0;entryX=0.25;entryY=0;entryDx=0;entryDy=0;fontColor=#FFFFFF;" edge="1" parent="1" source="110" target="59">
                    <mxGeometry relative="1" as="geometry"/>
                </mxCell>
                <mxCell id="110" value="Send to YT&lt;br&gt;from tmp" style="rounded=0;whiteSpace=wrap;html=1;fontColor=#FFFFFF;" vertex="1" parent="1">
                    <mxGeometry x="1070" y="754" width="120" height="60" as="geometry"/>
                </mxCell>
                <mxCell id="112" value="No" style="edgeStyle=orthogonalEdgeStyle;html=1;exitX=1;exitY=0.5;exitDx=0;exitDy=0;entryX=0.75;entryY=0;entryDx=0;entryDy=0;" edge="1" parent="1" source="104" target="110">
                    <mxGeometry x="-0.4545" y="10" relative="1" as="geometry">
                        <mxPoint x="1040" y="720" as="targetPoint"/>
                        <mxPoint x="890" y="517" as="sourcePoint"/>
                        <mxPoint as="offset"/>
                    </mxGeometry>
                </mxCell>
            </root>
        </mxGraphModel>
    </diagram>
</mxfile>